<?xml version="1.0"?>
<svg xmlns="http://www.w3.org/2000/svg" width="512" height="512" viewBox="0 0 512 512"><g><path d="M477.24,422.07a7.683,7.683,0,0,0-.3-1.9,87.824,87.824,0,0,0-66.48-61.94L392,354.35V239.6a27.9,27.9,0,0,0,8.01-19.56v-24A27.738,27.738,0,0,0,392,176.43V152c0-38.37-14.09-74.47-39.67-101.65C326.62,23.04,292.41,8,256,8,181.01,8,120,72.6,120,152V354.35l-18.46,3.88a87.824,87.824,0,0,0-66.48,61.94,7.683,7.683,0,0,0-.3,1.9L32.01,495.7A8,8,0,0,0,40,504H472a8,8,0,0,0,7.99-8.3ZM384.01,196.03v24a12.022,12.022,0,0,1-12,12H368l.02-48h4A12,12,0,0,1,384.01,196.03ZM160,181.44V164.9c25.52-6.94,75.42-29.93,96.04-48.82,20.6,18.88,70.42,41.84,95.96,48.81v16.55l-35.34,49.48-58.72-14.68a7.961,7.961,0,0,0-3.88,0l-58.72,14.68Zm24,61.12v38.67c-20.61-23.19-24-45.26-24-57.23V208.96Zm168-33.6V224c0,11.97-3.39,34.04-24,57.23V242.56ZM200,246.25l56-14,56,14v50.12C293.82,310.88,272.45,320,256,320s-37.82-9.12-56-23.63Zm9.65,105.58a8,8,0,0,0,6.35-7.8V325.38c13.85,6.81,27.82,10.62,40,10.62s26.15-3.81,40-10.62v18.65a8,8,0,0,0,6.35,7.8L344,360.59V376a88,88,0,0,1-176,0V360.59ZM312,337.51v-21.4c23.65-15.85,44.62-40,52.59-68.08h7.42a27.658,27.658,0,0,0,3.99-.29V350.98ZM136,152c0-70.58,53.83-128,120-128,31.96,0,62.03,13.25,84.68,37.31C363.46,85.51,376,117.72,376,152v16.31a29.243,29.243,0,0,0-3.98-.28H368V160a4.808,4.808,0,0,0-.04-.7,8,8,0,0,0-6.51-8.62c-11.04-2.03-33.18-10.61-53.85-20.88-22.85-11.34-40.05-22.85-44.9-30.02a3.507,3.507,0,0,0-.52-.6,8.156,8.156,0,0,0-1.7-1.55,8.008,8.008,0,0,0-11.11,2.15c-4.85,7.17-22.05,18.68-44.9,30.02-20.67,10.27-42.81,18.85-53.85,20.88a8.007,8.007,0,0,0-6.53,8.37,4.858,4.858,0,0,0-.09.95v64c0,38.17,25.83,71.89,56,92.11v21.4l-64,13.47ZM400,488V456a8,8,0,0,0-16,0v32H128V456a8,8,0,0,0-16,0v32H48.3l2.41-64.34a71.856,71.856,0,0,1,54.13-49.77L152,363.96V376a104,104,0,0,0,208,0V363.96l47.16,9.93a71.856,71.856,0,0,1,54.13,49.77L463.7,488Z"/><circle cx="208" cy="192" r="16"/><circle cx="304" cy="192" r="16"/></g></svg>
