<?xml version="1.0"?>
<svg xmlns="http://www.w3.org/2000/svg" width="512" height="512" viewBox="0 0 512 512"><g><path d="M477.24,422.07a7.683,7.683,0,0,0-.3-1.9,87.8,87.8,0,0,0-66.41-61.92L320,337.62V315.86A112.136,112.136,0,0,0,366.85,240H372a28.031,28.031,0,0,0,28-28V188a28.031,28.031,0,0,0-28-28h-4V141.11c28.42-14.02,37.96-36.18,40.88-52.72a84.2,84.2,0,0,0-1.19-34.59,8.006,8.006,0,0,0-14.35-2.24c-5.7,8.56-29.86,3.4-60.26-12.8A111.987,111.987,0,0,0,144,120v40h-4a28.031,28.031,0,0,0-28,28v24a28.031,28.031,0,0,0,28,28h5.15A112.136,112.136,0,0,0,192,315.86v21.76l-90.53,20.63a87.8,87.8,0,0,0-66.41,61.92,7.683,7.683,0,0,0-.3,1.9L32.01,495.7A8,8,0,0,0,40,504H472a8,8,0,0,0,7.99-8.3ZM144,224h-4a12.01,12.01,0,0,1-12-12V188a12.01,12.01,0,0,1,12-12h4Zm208,0a95.567,95.567,0,0,1-24,63.42V242.56l24-33.6Zm20-48a12.01,12.01,0,0,1,12,12v24a12.01,12.01,0,0,1-12,12h-4V176ZM160,120A95.994,95.994,0,0,1,322.8,51.06a1.738,1.738,0,0,0,.15.13c.13.12.26.24.39.35.1.08.2.15.3.23s.22.15.33.23c.14.09.28.17.43.25l.18.12c.05.02.1.05.16.08.01,0,.02.01.03.02,35.79,19.22,56.88,21.64,69.29,17.47.94,15.94-2.86,43.99-37.21,58.71a7.983,7.983,0,0,0-4.83,6.91c-.01.12-.02.25-.02.42V148.3a80.586,80.586,0,0,1-42.3-31.52c-.02-.03-.04-.04-.05-.06a8.57,8.57,0,0,0-.86-1.05,8,8,0,0,0-11.31-.13A128.148,128.148,0,0,1,160,142.69Zm24,167.42A95.567,95.567,0,0,1,160,224V208.96l24,33.6Zm7.01-63.36c-.17.02-.34.06-.5.09L160,181.44V159.81a144.25,144.25,0,0,0,141.98-26.7A96.7,96.7,0,0,0,352,164.96v16.48l-35.34,49.48-58.72-14.68a8.034,8.034,0,0,0-2.93-.18ZM256,320a95.477,95.477,0,0,1-56.17-18.2,8.272,8.272,0,0,0,.17-1.66V239.06l55.51-6.94L312,246.25v53.89a8.272,8.272,0,0,0,.17,1.66A95.477,95.477,0,0,1,256,320Zm48,5.18V344c0,29.52-25.86,40-48,40-35.43,0-48-21.55-48-40V325.18a111.88,111.88,0,0,0,96,0ZM416,488V456a8,8,0,0,0-16,0v32H112V456a8,8,0,0,0-16,0v32H48.3l2.41-64.34a71.856,71.856,0,0,1,54.13-49.77l.13-.03,87.82-20.01a50.557,50.557,0,0,0,18.6,31.99C222.77,394.97,238.61,400,256,400s33.23-5.03,44.61-14.16a50.557,50.557,0,0,0,18.6-31.99l87.82,20.01.13.03a71.856,71.856,0,0,1,54.13,49.77L463.7,488Z"/><circle cx="208" cy="192" r="16"/><circle cx="304" cy="192" r="16"/></g></svg>
